<mxfile host="app.diagrams.net" agent="Mozilla/5.0 (X11; Linux x86_64) AppleWebKit/537.36 (KHTML, like Gecko) Chrome/131.0.0.0 Safari/537.36" version="24.9.3">
  <diagram name="Page-1" id="Qv_J_CXBklZxmLb-J_g0">
    <mxGraphModel dx="1985" dy="869" grid="1" gridSize="10" guides="1" tooltips="1" connect="1" arrows="1" fold="1" page="0" pageScale="1" pageWidth="1169" pageHeight="827" math="0" shadow="0">
      <root>
        <mxCell id="0" />
        <mxCell id="1" parent="0" />
        <mxCell id="OFFA5qb3TSApS7L_1jAY-207" value="" style="shape=table;startSize=0;container=1;collapsible=0;childLayout=tableLayout;" vertex="1" parent="1">
          <mxGeometry x="30" y="310" width="1400" height="80" as="geometry" />
        </mxCell>
        <mxCell id="OFFA5qb3TSApS7L_1jAY-208" value="" style="shape=tableRow;horizontal=0;startSize=0;swimlaneHead=0;swimlaneBody=0;strokeColor=inherit;top=0;left=0;bottom=0;right=0;collapsible=0;dropTarget=0;fillColor=none;points=[[0,0.5],[1,0.5]];portConstraint=eastwest;" vertex="1" parent="OFFA5qb3TSApS7L_1jAY-207">
          <mxGeometry width="1400" height="40" as="geometry" />
        </mxCell>
        <mxCell id="OFFA5qb3TSApS7L_1jAY-209" value="&lt;span style=&quot;color: rgb(0, 0, 0); font-family: Helvetica; font-size: 12px; font-style: normal; font-variant-ligatures: normal; font-variant-caps: normal; font-weight: 700; letter-spacing: normal; orphans: 2; text-align: left; text-indent: 0px; text-transform: none; widows: 2; word-spacing: 0px; -webkit-text-stroke-width: 0px; white-space: normal; background-color: rgb(251, 251, 251); float: none; display: inline !important;&quot;&gt;&lt;u&gt;id&lt;/u&gt;&lt;/span&gt;" style="shape=partialRectangle;html=1;whiteSpace=wrap;connectable=0;strokeColor=inherit;overflow=hidden;fillColor=none;top=0;left=0;bottom=0;right=0;pointerEvents=1;" vertex="1" parent="OFFA5qb3TSApS7L_1jAY-208">
          <mxGeometry width="100" height="40" as="geometry">
            <mxRectangle width="100" height="40" as="alternateBounds" />
          </mxGeometry>
        </mxCell>
        <mxCell id="OFFA5qb3TSApS7L_1jAY-210" value="&lt;span style=&quot;text-align: left;&quot;&gt;current_age&lt;/span&gt;" style="shape=partialRectangle;html=1;whiteSpace=wrap;connectable=0;strokeColor=inherit;overflow=hidden;fillColor=none;top=0;left=0;bottom=0;right=0;pointerEvents=1;" vertex="1" parent="OFFA5qb3TSApS7L_1jAY-208">
          <mxGeometry x="100" width="100" height="40" as="geometry">
            <mxRectangle width="100" height="40" as="alternateBounds" />
          </mxGeometry>
        </mxCell>
        <mxCell id="OFFA5qb3TSApS7L_1jAY-211" value="&lt;span style=&quot;text-align: left;&quot;&gt;retirement_age&lt;/span&gt;" style="shape=partialRectangle;html=1;whiteSpace=wrap;connectable=0;strokeColor=inherit;overflow=hidden;fillColor=none;top=0;left=0;bottom=0;right=0;pointerEvents=1;" vertex="1" parent="OFFA5qb3TSApS7L_1jAY-208">
          <mxGeometry x="200" width="100" height="40" as="geometry">
            <mxRectangle width="100" height="40" as="alternateBounds" />
          </mxGeometry>
        </mxCell>
        <mxCell id="OFFA5qb3TSApS7L_1jAY-212" value="&lt;span style=&quot;text-align: left;&quot;&gt;birth_year&lt;/span&gt;" style="shape=partialRectangle;html=1;whiteSpace=wrap;connectable=0;strokeColor=inherit;overflow=hidden;fillColor=none;top=0;left=0;bottom=0;right=0;pointerEvents=1;" vertex="1" parent="OFFA5qb3TSApS7L_1jAY-208">
          <mxGeometry x="300" width="100" height="40" as="geometry">
            <mxRectangle width="100" height="40" as="alternateBounds" />
          </mxGeometry>
        </mxCell>
        <mxCell id="OFFA5qb3TSApS7L_1jAY-213" value="&lt;span style=&quot;text-align: left;&quot;&gt;birth_month&lt;/span&gt;" style="shape=partialRectangle;html=1;whiteSpace=wrap;connectable=0;strokeColor=inherit;overflow=hidden;fillColor=none;top=0;left=0;bottom=0;right=0;pointerEvents=1;" vertex="1" parent="OFFA5qb3TSApS7L_1jAY-208">
          <mxGeometry x="400" width="100" height="40" as="geometry">
            <mxRectangle width="100" height="40" as="alternateBounds" />
          </mxGeometry>
        </mxCell>
        <mxCell id="OFFA5qb3TSApS7L_1jAY-214" value="&lt;span style=&quot;text-align: left;&quot;&gt;gender&lt;/span&gt;" style="shape=partialRectangle;html=1;whiteSpace=wrap;connectable=0;strokeColor=inherit;overflow=hidden;fillColor=none;top=0;left=0;bottom=0;right=0;pointerEvents=1;" vertex="1" parent="OFFA5qb3TSApS7L_1jAY-208">
          <mxGeometry x="500" width="100" height="40" as="geometry">
            <mxRectangle width="100" height="40" as="alternateBounds" />
          </mxGeometry>
        </mxCell>
        <mxCell id="OFFA5qb3TSApS7L_1jAY-215" value="&lt;span style=&quot;text-align: left;&quot;&gt;address&lt;/span&gt;" style="shape=partialRectangle;html=1;whiteSpace=wrap;connectable=0;strokeColor=inherit;overflow=hidden;fillColor=none;top=0;left=0;bottom=0;right=0;pointerEvents=1;" vertex="1" parent="OFFA5qb3TSApS7L_1jAY-208">
          <mxGeometry x="600" width="100" height="40" as="geometry">
            <mxRectangle width="100" height="40" as="alternateBounds" />
          </mxGeometry>
        </mxCell>
        <mxCell id="OFFA5qb3TSApS7L_1jAY-216" value="&lt;span style=&quot;color: rgb(0, 0, 0); font-family: Helvetica; font-size: 12px; font-style: normal; font-variant-ligatures: normal; font-variant-caps: normal; font-weight: 400; letter-spacing: normal; orphans: 2; text-align: left; text-indent: 0px; text-transform: none; widows: 2; word-spacing: 0px; -webkit-text-stroke-width: 0px; white-space: normal; background-color: rgb(251, 251, 251); text-decoration-thickness: initial; text-decoration-style: initial; text-decoration-color: initial; display: inline !important; float: none;&quot;&gt;latitude&lt;/span&gt;" style="shape=partialRectangle;html=1;whiteSpace=wrap;connectable=0;strokeColor=inherit;overflow=hidden;fillColor=none;top=0;left=0;bottom=0;right=0;pointerEvents=1;" vertex="1" parent="OFFA5qb3TSApS7L_1jAY-208">
          <mxGeometry x="700" width="100" height="40" as="geometry">
            <mxRectangle width="100" height="40" as="alternateBounds" />
          </mxGeometry>
        </mxCell>
        <mxCell id="OFFA5qb3TSApS7L_1jAY-217" value="&lt;span style=&quot;text-align: left;&quot;&gt;longitude&lt;/span&gt;" style="shape=partialRectangle;html=1;whiteSpace=wrap;connectable=0;strokeColor=inherit;overflow=hidden;fillColor=none;top=0;left=0;bottom=0;right=0;pointerEvents=1;" vertex="1" parent="OFFA5qb3TSApS7L_1jAY-208">
          <mxGeometry x="800" width="100" height="40" as="geometry">
            <mxRectangle width="100" height="40" as="alternateBounds" />
          </mxGeometry>
        </mxCell>
        <mxCell id="OFFA5qb3TSApS7L_1jAY-218" value="&lt;span style=&quot;text-align: left;&quot;&gt;per_capita_income&lt;/span&gt;" style="shape=partialRectangle;html=1;whiteSpace=wrap;connectable=0;strokeColor=inherit;overflow=hidden;fillColor=none;top=0;left=0;bottom=0;right=0;pointerEvents=1;" vertex="1" parent="OFFA5qb3TSApS7L_1jAY-208">
          <mxGeometry x="900" width="100" height="40" as="geometry">
            <mxRectangle width="100" height="40" as="alternateBounds" />
          </mxGeometry>
        </mxCell>
        <mxCell id="OFFA5qb3TSApS7L_1jAY-219" value="&lt;span style=&quot;text-align: left;&quot;&gt;yearly_income&lt;/span&gt;" style="shape=partialRectangle;html=1;whiteSpace=wrap;connectable=0;strokeColor=inherit;overflow=hidden;fillColor=none;top=0;left=0;bottom=0;right=0;pointerEvents=1;" vertex="1" parent="OFFA5qb3TSApS7L_1jAY-208">
          <mxGeometry x="1000" width="100" height="40" as="geometry">
            <mxRectangle width="100" height="40" as="alternateBounds" />
          </mxGeometry>
        </mxCell>
        <mxCell id="OFFA5qb3TSApS7L_1jAY-220" value="&lt;span style=&quot;text-align: left;&quot;&gt;total_debt&lt;/span&gt;" style="shape=partialRectangle;html=1;whiteSpace=wrap;connectable=0;strokeColor=inherit;overflow=hidden;fillColor=none;top=0;left=0;bottom=0;right=0;pointerEvents=1;" vertex="1" parent="OFFA5qb3TSApS7L_1jAY-208">
          <mxGeometry x="1100" width="100" height="40" as="geometry">
            <mxRectangle width="100" height="40" as="alternateBounds" />
          </mxGeometry>
        </mxCell>
        <mxCell id="OFFA5qb3TSApS7L_1jAY-221" value="&lt;span style=&quot;text-align: left;&quot;&gt;credit_score&lt;/span&gt;" style="shape=partialRectangle;html=1;whiteSpace=wrap;connectable=0;strokeColor=inherit;overflow=hidden;fillColor=none;top=0;left=0;bottom=0;right=0;pointerEvents=1;" vertex="1" parent="OFFA5qb3TSApS7L_1jAY-208">
          <mxGeometry x="1200" width="100" height="40" as="geometry">
            <mxRectangle width="100" height="40" as="alternateBounds" />
          </mxGeometry>
        </mxCell>
        <mxCell id="OFFA5qb3TSApS7L_1jAY-222" value="&lt;span style=&quot;text-align: left;&quot;&gt;num_credit_cards&lt;/span&gt;" style="shape=partialRectangle;html=1;whiteSpace=wrap;connectable=0;strokeColor=inherit;overflow=hidden;fillColor=none;top=0;left=0;bottom=0;right=0;pointerEvents=1;" vertex="1" parent="OFFA5qb3TSApS7L_1jAY-208">
          <mxGeometry x="1300" width="100" height="40" as="geometry">
            <mxRectangle width="100" height="40" as="alternateBounds" />
          </mxGeometry>
        </mxCell>
        <mxCell id="OFFA5qb3TSApS7L_1jAY-223" value="" style="shape=tableRow;horizontal=0;startSize=0;swimlaneHead=0;swimlaneBody=0;strokeColor=inherit;top=0;left=0;bottom=0;right=0;collapsible=0;dropTarget=0;fillColor=none;points=[[0,0.5],[1,0.5]];portConstraint=eastwest;" vertex="1" parent="OFFA5qb3TSApS7L_1jAY-207">
          <mxGeometry y="40" width="1400" height="40" as="geometry" />
        </mxCell>
        <mxCell id="OFFA5qb3TSApS7L_1jAY-224" value="825" style="shape=partialRectangle;html=1;whiteSpace=wrap;connectable=0;strokeColor=inherit;overflow=hidden;fillColor=none;top=0;left=0;bottom=0;right=0;pointerEvents=1;" vertex="1" parent="OFFA5qb3TSApS7L_1jAY-223">
          <mxGeometry width="100" height="40" as="geometry">
            <mxRectangle width="100" height="40" as="alternateBounds" />
          </mxGeometry>
        </mxCell>
        <mxCell id="OFFA5qb3TSApS7L_1jAY-225" value="53" style="shape=partialRectangle;html=1;whiteSpace=wrap;connectable=0;strokeColor=inherit;overflow=hidden;fillColor=none;top=0;left=0;bottom=0;right=0;pointerEvents=1;" vertex="1" parent="OFFA5qb3TSApS7L_1jAY-223">
          <mxGeometry x="100" width="100" height="40" as="geometry">
            <mxRectangle width="100" height="40" as="alternateBounds" />
          </mxGeometry>
        </mxCell>
        <mxCell id="OFFA5qb3TSApS7L_1jAY-226" value="66&lt;span style=&quot;white-space: pre;&quot;&gt;&#x9;&lt;/span&gt;" style="shape=partialRectangle;html=1;whiteSpace=wrap;connectable=0;strokeColor=inherit;overflow=hidden;fillColor=none;top=0;left=0;bottom=0;right=0;pointerEvents=1;" vertex="1" parent="OFFA5qb3TSApS7L_1jAY-223">
          <mxGeometry x="200" width="100" height="40" as="geometry">
            <mxRectangle width="100" height="40" as="alternateBounds" />
          </mxGeometry>
        </mxCell>
        <mxCell id="OFFA5qb3TSApS7L_1jAY-227" value="1966" style="shape=partialRectangle;html=1;whiteSpace=wrap;connectable=0;strokeColor=inherit;overflow=hidden;fillColor=none;top=0;left=0;bottom=0;right=0;pointerEvents=1;" vertex="1" parent="OFFA5qb3TSApS7L_1jAY-223">
          <mxGeometry x="300" width="100" height="40" as="geometry">
            <mxRectangle width="100" height="40" as="alternateBounds" />
          </mxGeometry>
        </mxCell>
        <mxCell id="OFFA5qb3TSApS7L_1jAY-228" value="11" style="shape=partialRectangle;html=1;whiteSpace=wrap;connectable=0;strokeColor=inherit;overflow=hidden;fillColor=none;top=0;left=0;bottom=0;right=0;pointerEvents=1;" vertex="1" parent="OFFA5qb3TSApS7L_1jAY-223">
          <mxGeometry x="400" width="100" height="40" as="geometry">
            <mxRectangle width="100" height="40" as="alternateBounds" />
          </mxGeometry>
        </mxCell>
        <mxCell id="OFFA5qb3TSApS7L_1jAY-229" value="Female" style="shape=partialRectangle;html=1;whiteSpace=wrap;connectable=0;strokeColor=inherit;overflow=hidden;fillColor=none;top=0;left=0;bottom=0;right=0;pointerEvents=1;" vertex="1" parent="OFFA5qb3TSApS7L_1jAY-223">
          <mxGeometry x="500" width="100" height="40" as="geometry">
            <mxRectangle width="100" height="40" as="alternateBounds" />
          </mxGeometry>
        </mxCell>
        <mxCell id="OFFA5qb3TSApS7L_1jAY-230" value="462 Rose Lane" style="shape=partialRectangle;html=1;whiteSpace=wrap;connectable=0;strokeColor=inherit;overflow=hidden;fillColor=none;top=0;left=0;bottom=0;right=0;pointerEvents=1;" vertex="1" parent="OFFA5qb3TSApS7L_1jAY-223">
          <mxGeometry x="600" width="100" height="40" as="geometry">
            <mxRectangle width="100" height="40" as="alternateBounds" />
          </mxGeometry>
        </mxCell>
        <mxCell id="OFFA5qb3TSApS7L_1jAY-231" value="34.15" style="shape=partialRectangle;html=1;whiteSpace=wrap;connectable=0;strokeColor=inherit;overflow=hidden;fillColor=none;top=0;left=0;bottom=0;right=0;pointerEvents=1;" vertex="1" parent="OFFA5qb3TSApS7L_1jAY-223">
          <mxGeometry x="700" width="100" height="40" as="geometry">
            <mxRectangle width="100" height="40" as="alternateBounds" />
          </mxGeometry>
        </mxCell>
        <mxCell id="OFFA5qb3TSApS7L_1jAY-232" value="-117.76" style="shape=partialRectangle;html=1;whiteSpace=wrap;connectable=0;strokeColor=inherit;overflow=hidden;fillColor=none;top=0;left=0;bottom=0;right=0;pointerEvents=1;" vertex="1" parent="OFFA5qb3TSApS7L_1jAY-223">
          <mxGeometry x="800" width="100" height="40" as="geometry">
            <mxRectangle width="100" height="40" as="alternateBounds" />
          </mxGeometry>
        </mxCell>
        <mxCell id="OFFA5qb3TSApS7L_1jAY-233" value="29278" style="shape=partialRectangle;html=1;whiteSpace=wrap;connectable=0;strokeColor=inherit;overflow=hidden;fillColor=none;top=0;left=0;bottom=0;right=0;pointerEvents=1;" vertex="1" parent="OFFA5qb3TSApS7L_1jAY-223">
          <mxGeometry x="900" width="100" height="40" as="geometry">
            <mxRectangle width="100" height="40" as="alternateBounds" />
          </mxGeometry>
        </mxCell>
        <mxCell id="OFFA5qb3TSApS7L_1jAY-234" value="59696" style="shape=partialRectangle;html=1;whiteSpace=wrap;connectable=0;strokeColor=inherit;overflow=hidden;fillColor=none;top=0;left=0;bottom=0;right=0;pointerEvents=1;" vertex="1" parent="OFFA5qb3TSApS7L_1jAY-223">
          <mxGeometry x="1000" width="100" height="40" as="geometry">
            <mxRectangle width="100" height="40" as="alternateBounds" />
          </mxGeometry>
        </mxCell>
        <mxCell id="OFFA5qb3TSApS7L_1jAY-235" value="127613" style="shape=partialRectangle;html=1;whiteSpace=wrap;connectable=0;strokeColor=inherit;overflow=hidden;fillColor=none;top=0;left=0;bottom=0;right=0;pointerEvents=1;" vertex="1" parent="OFFA5qb3TSApS7L_1jAY-223">
          <mxGeometry x="1100" width="100" height="40" as="geometry">
            <mxRectangle width="100" height="40" as="alternateBounds" />
          </mxGeometry>
        </mxCell>
        <mxCell id="OFFA5qb3TSApS7L_1jAY-236" value="787" style="shape=partialRectangle;html=1;whiteSpace=wrap;connectable=0;strokeColor=inherit;overflow=hidden;fillColor=none;top=0;left=0;bottom=0;right=0;pointerEvents=1;" vertex="1" parent="OFFA5qb3TSApS7L_1jAY-223">
          <mxGeometry x="1200" width="100" height="40" as="geometry">
            <mxRectangle width="100" height="40" as="alternateBounds" />
          </mxGeometry>
        </mxCell>
        <mxCell id="OFFA5qb3TSApS7L_1jAY-237" value="5" style="shape=partialRectangle;html=1;whiteSpace=wrap;connectable=0;strokeColor=inherit;overflow=hidden;fillColor=none;top=0;left=0;bottom=0;right=0;pointerEvents=1;" vertex="1" parent="OFFA5qb3TSApS7L_1jAY-223">
          <mxGeometry x="1300" width="100" height="40" as="geometry">
            <mxRectangle width="100" height="40" as="alternateBounds" />
          </mxGeometry>
        </mxCell>
        <mxCell id="OFFA5qb3TSApS7L_1jAY-306" value="" style="shape=table;startSize=0;container=1;collapsible=0;childLayout=tableLayout;" vertex="1" parent="1">
          <mxGeometry x="30" y="520" width="1400" height="80" as="geometry" />
        </mxCell>
        <mxCell id="OFFA5qb3TSApS7L_1jAY-307" value="" style="shape=tableRow;horizontal=0;startSize=0;swimlaneHead=0;swimlaneBody=0;strokeColor=inherit;top=0;left=0;bottom=0;right=0;collapsible=0;dropTarget=0;fillColor=none;points=[[0,0.5],[1,0.5]];portConstraint=eastwest;" vertex="1" parent="OFFA5qb3TSApS7L_1jAY-306">
          <mxGeometry width="1400" height="40" as="geometry" />
        </mxCell>
        <mxCell id="OFFA5qb3TSApS7L_1jAY-308" value="&lt;span style=&quot;font-weight: 700; text-align: left; text-decoration-line: underline;&quot;&gt;id&lt;/span&gt;" style="shape=partialRectangle;html=1;whiteSpace=wrap;connectable=0;strokeColor=inherit;overflow=hidden;fillColor=none;top=0;left=0;bottom=0;right=0;pointerEvents=1;" vertex="1" parent="OFFA5qb3TSApS7L_1jAY-307">
          <mxGeometry width="111" height="40" as="geometry">
            <mxRectangle width="111" height="40" as="alternateBounds" />
          </mxGeometry>
        </mxCell>
        <mxCell id="OFFA5qb3TSApS7L_1jAY-309" value="&lt;span style=&quot;text-align: left;&quot;&gt;&lt;i&gt;client_id&lt;/i&gt;&lt;/span&gt;" style="shape=partialRectangle;html=1;whiteSpace=wrap;connectable=0;strokeColor=inherit;overflow=hidden;fillColor=none;top=0;left=0;bottom=0;right=0;pointerEvents=1;" vertex="1" parent="OFFA5qb3TSApS7L_1jAY-307">
          <mxGeometry x="111" width="110" height="40" as="geometry">
            <mxRectangle width="110" height="40" as="alternateBounds" />
          </mxGeometry>
        </mxCell>
        <mxCell id="OFFA5qb3TSApS7L_1jAY-310" value="&lt;span style=&quot;text-align: left;&quot;&gt;&lt;i&gt;card_id&lt;/i&gt;&lt;/span&gt;" style="shape=partialRectangle;html=1;whiteSpace=wrap;connectable=0;strokeColor=inherit;overflow=hidden;fillColor=none;top=0;left=0;bottom=0;right=0;pointerEvents=1;" vertex="1" parent="OFFA5qb3TSApS7L_1jAY-307">
          <mxGeometry x="221" width="111" height="40" as="geometry">
            <mxRectangle width="111" height="40" as="alternateBounds" />
          </mxGeometry>
        </mxCell>
        <mxCell id="OFFA5qb3TSApS7L_1jAY-311" value="&lt;span style=&quot;text-align: left;&quot;&gt;date&lt;/span&gt;" style="shape=partialRectangle;html=1;whiteSpace=wrap;connectable=0;strokeColor=inherit;overflow=hidden;fillColor=none;top=0;left=0;bottom=0;right=0;pointerEvents=1;" vertex="1" parent="OFFA5qb3TSApS7L_1jAY-307">
          <mxGeometry x="332" width="110" height="40" as="geometry">
            <mxRectangle width="110" height="40" as="alternateBounds" />
          </mxGeometry>
        </mxCell>
        <mxCell id="OFFA5qb3TSApS7L_1jAY-312" value="&lt;span style=&quot;text-align: left;&quot;&gt;amount&lt;/span&gt;" style="shape=partialRectangle;html=1;whiteSpace=wrap;connectable=0;strokeColor=inherit;overflow=hidden;fillColor=none;top=0;left=0;bottom=0;right=0;pointerEvents=1;" vertex="1" parent="OFFA5qb3TSApS7L_1jAY-307">
          <mxGeometry x="442" width="111" height="40" as="geometry">
            <mxRectangle width="111" height="40" as="alternateBounds" />
          </mxGeometry>
        </mxCell>
        <mxCell id="OFFA5qb3TSApS7L_1jAY-313" value="&lt;span style=&quot;text-align: left;&quot;&gt;use_chip&lt;/span&gt;" style="shape=partialRectangle;html=1;whiteSpace=wrap;connectable=0;strokeColor=inherit;overflow=hidden;fillColor=none;top=0;left=0;bottom=0;right=0;pointerEvents=1;" vertex="1" parent="OFFA5qb3TSApS7L_1jAY-307">
          <mxGeometry x="553" width="110" height="40" as="geometry">
            <mxRectangle width="110" height="40" as="alternateBounds" />
          </mxGeometry>
        </mxCell>
        <mxCell id="OFFA5qb3TSApS7L_1jAY-314" value="&lt;span style=&quot;text-align: left;&quot;&gt;merchant_id&lt;/span&gt;" style="shape=partialRectangle;html=1;whiteSpace=wrap;connectable=0;strokeColor=inherit;overflow=hidden;fillColor=none;top=0;left=0;bottom=0;right=0;pointerEvents=1;" vertex="1" parent="OFFA5qb3TSApS7L_1jAY-307">
          <mxGeometry x="663" width="129" height="40" as="geometry">
            <mxRectangle width="129" height="40" as="alternateBounds" />
          </mxGeometry>
        </mxCell>
        <mxCell id="OFFA5qb3TSApS7L_1jAY-315" value="&lt;span style=&quot;text-align: left;&quot;&gt;merchant_city&lt;/span&gt;" style="shape=partialRectangle;html=1;whiteSpace=wrap;connectable=0;strokeColor=inherit;overflow=hidden;fillColor=none;top=0;left=0;bottom=0;right=0;pointerEvents=1;" vertex="1" parent="OFFA5qb3TSApS7L_1jAY-307">
          <mxGeometry x="792" width="147" height="40" as="geometry">
            <mxRectangle width="147" height="40" as="alternateBounds" />
          </mxGeometry>
        </mxCell>
        <mxCell id="OFFA5qb3TSApS7L_1jAY-316" value="&lt;span style=&quot;text-align: left;&quot;&gt;merchant_state&lt;/span&gt;" style="shape=partialRectangle;html=1;whiteSpace=wrap;connectable=0;strokeColor=inherit;overflow=hidden;fillColor=none;top=0;left=0;bottom=0;right=0;pointerEvents=1;" vertex="1" parent="OFFA5qb3TSApS7L_1jAY-307">
          <mxGeometry x="939" width="166" height="40" as="geometry">
            <mxRectangle width="166" height="40" as="alternateBounds" />
          </mxGeometry>
        </mxCell>
        <mxCell id="OFFA5qb3TSApS7L_1jAY-317" value="&lt;span style=&quot;text-align: left;&quot;&gt;zip&lt;/span&gt;" style="shape=partialRectangle;html=1;whiteSpace=wrap;connectable=0;strokeColor=inherit;overflow=hidden;fillColor=none;top=0;left=0;bottom=0;right=0;pointerEvents=1;" vertex="1" parent="OFFA5qb3TSApS7L_1jAY-307">
          <mxGeometry x="1105" width="74" height="40" as="geometry">
            <mxRectangle width="74" height="40" as="alternateBounds" />
          </mxGeometry>
        </mxCell>
        <mxCell id="OFFA5qb3TSApS7L_1jAY-318" value="&lt;span style=&quot;text-align: left;&quot;&gt;mcc&lt;/span&gt;" style="shape=partialRectangle;html=1;whiteSpace=wrap;connectable=0;strokeColor=inherit;overflow=hidden;fillColor=none;top=0;left=0;bottom=0;right=0;pointerEvents=1;" vertex="1" parent="OFFA5qb3TSApS7L_1jAY-307">
          <mxGeometry x="1179" width="110" height="40" as="geometry">
            <mxRectangle width="110" height="40" as="alternateBounds" />
          </mxGeometry>
        </mxCell>
        <mxCell id="OFFA5qb3TSApS7L_1jAY-319" value="&lt;span style=&quot;text-align: left;&quot;&gt;errors&lt;/span&gt;" style="shape=partialRectangle;html=1;whiteSpace=wrap;connectable=0;strokeColor=inherit;overflow=hidden;fillColor=none;top=0;left=0;bottom=0;right=0;pointerEvents=1;" vertex="1" parent="OFFA5qb3TSApS7L_1jAY-307">
          <mxGeometry x="1289" width="111" height="40" as="geometry">
            <mxRectangle width="111" height="40" as="alternateBounds" />
          </mxGeometry>
        </mxCell>
        <mxCell id="OFFA5qb3TSApS7L_1jAY-320" value="" style="shape=tableRow;horizontal=0;startSize=0;swimlaneHead=0;swimlaneBody=0;strokeColor=inherit;top=0;left=0;bottom=0;right=0;collapsible=0;dropTarget=0;fillColor=none;points=[[0,0.5],[1,0.5]];portConstraint=eastwest;" vertex="1" parent="OFFA5qb3TSApS7L_1jAY-306">
          <mxGeometry y="40" width="1400" height="40" as="geometry" />
        </mxCell>
        <mxCell id="OFFA5qb3TSApS7L_1jAY-321" value="7475327" style="shape=partialRectangle;html=1;whiteSpace=wrap;connectable=0;strokeColor=inherit;overflow=hidden;fillColor=none;top=0;left=0;bottom=0;right=0;pointerEvents=1;" vertex="1" parent="OFFA5qb3TSApS7L_1jAY-320">
          <mxGeometry width="111" height="40" as="geometry">
            <mxRectangle width="111" height="40" as="alternateBounds" />
          </mxGeometry>
        </mxCell>
        <mxCell id="OFFA5qb3TSApS7L_1jAY-322" value="1556" style="shape=partialRectangle;html=1;whiteSpace=wrap;connectable=0;strokeColor=inherit;overflow=hidden;fillColor=none;top=0;left=0;bottom=0;right=0;pointerEvents=1;" vertex="1" parent="OFFA5qb3TSApS7L_1jAY-320">
          <mxGeometry x="111" width="110" height="40" as="geometry">
            <mxRectangle width="110" height="40" as="alternateBounds" />
          </mxGeometry>
        </mxCell>
        <mxCell id="OFFA5qb3TSApS7L_1jAY-323" value="2972" style="shape=partialRectangle;html=1;whiteSpace=wrap;connectable=0;strokeColor=inherit;overflow=hidden;fillColor=none;top=0;left=0;bottom=0;right=0;pointerEvents=1;" vertex="1" parent="OFFA5qb3TSApS7L_1jAY-320">
          <mxGeometry x="221" width="111" height="40" as="geometry">
            <mxRectangle width="111" height="40" as="alternateBounds" />
          </mxGeometry>
        </mxCell>
        <mxCell id="OFFA5qb3TSApS7L_1jAY-324" value="2010-01-01 00:01:00" style="shape=partialRectangle;html=1;whiteSpace=wrap;connectable=0;strokeColor=inherit;overflow=hidden;fillColor=none;top=0;left=0;bottom=0;right=0;pointerEvents=1;" vertex="1" parent="OFFA5qb3TSApS7L_1jAY-320">
          <mxGeometry x="332" width="110" height="40" as="geometry">
            <mxRectangle width="110" height="40" as="alternateBounds" />
          </mxGeometry>
        </mxCell>
        <mxCell id="OFFA5qb3TSApS7L_1jAY-325" value="-77.00" style="shape=partialRectangle;html=1;whiteSpace=wrap;connectable=0;strokeColor=inherit;overflow=hidden;fillColor=none;top=0;left=0;bottom=0;right=0;pointerEvents=1;" vertex="1" parent="OFFA5qb3TSApS7L_1jAY-320">
          <mxGeometry x="442" width="111" height="40" as="geometry">
            <mxRectangle width="111" height="40" as="alternateBounds" />
          </mxGeometry>
        </mxCell>
        <mxCell id="OFFA5qb3TSApS7L_1jAY-326" value="Swipe Transaction" style="shape=partialRectangle;html=1;whiteSpace=wrap;connectable=0;strokeColor=inherit;overflow=hidden;fillColor=none;top=0;left=0;bottom=0;right=0;pointerEvents=1;" vertex="1" parent="OFFA5qb3TSApS7L_1jAY-320">
          <mxGeometry x="553" width="110" height="40" as="geometry">
            <mxRectangle width="110" height="40" as="alternateBounds" />
          </mxGeometry>
        </mxCell>
        <mxCell id="OFFA5qb3TSApS7L_1jAY-327" value="59935" style="shape=partialRectangle;html=1;whiteSpace=wrap;connectable=0;strokeColor=inherit;overflow=hidden;fillColor=none;top=0;left=0;bottom=0;right=0;pointerEvents=1;" vertex="1" parent="OFFA5qb3TSApS7L_1jAY-320">
          <mxGeometry x="663" width="129" height="40" as="geometry">
            <mxRectangle width="129" height="40" as="alternateBounds" />
          </mxGeometry>
        </mxCell>
        <mxCell id="OFFA5qb3TSApS7L_1jAY-328" value="Beulah" style="shape=partialRectangle;html=1;whiteSpace=wrap;connectable=0;strokeColor=inherit;overflow=hidden;fillColor=none;top=0;left=0;bottom=0;right=0;pointerEvents=1;" vertex="1" parent="OFFA5qb3TSApS7L_1jAY-320">
          <mxGeometry x="792" width="147" height="40" as="geometry">
            <mxRectangle width="147" height="40" as="alternateBounds" />
          </mxGeometry>
        </mxCell>
        <mxCell id="OFFA5qb3TSApS7L_1jAY-329" value="ND" style="shape=partialRectangle;html=1;whiteSpace=wrap;connectable=0;strokeColor=inherit;overflow=hidden;fillColor=none;top=0;left=0;bottom=0;right=0;pointerEvents=1;" vertex="1" parent="OFFA5qb3TSApS7L_1jAY-320">
          <mxGeometry x="939" width="166" height="40" as="geometry">
            <mxRectangle width="166" height="40" as="alternateBounds" />
          </mxGeometry>
        </mxCell>
        <mxCell id="OFFA5qb3TSApS7L_1jAY-330" value="58523.0" style="shape=partialRectangle;html=1;whiteSpace=wrap;connectable=0;strokeColor=inherit;overflow=hidden;fillColor=none;top=0;left=0;bottom=0;right=0;pointerEvents=1;" vertex="1" parent="OFFA5qb3TSApS7L_1jAY-320">
          <mxGeometry x="1105" width="74" height="40" as="geometry">
            <mxRectangle width="74" height="40" as="alternateBounds" />
          </mxGeometry>
        </mxCell>
        <mxCell id="OFFA5qb3TSApS7L_1jAY-331" value="5499" style="shape=partialRectangle;html=1;whiteSpace=wrap;connectable=0;strokeColor=inherit;overflow=hidden;fillColor=none;top=0;left=0;bottom=0;right=0;pointerEvents=1;" vertex="1" parent="OFFA5qb3TSApS7L_1jAY-320">
          <mxGeometry x="1179" width="110" height="40" as="geometry">
            <mxRectangle width="110" height="40" as="alternateBounds" />
          </mxGeometry>
        </mxCell>
        <mxCell id="OFFA5qb3TSApS7L_1jAY-332" value="" style="shape=partialRectangle;html=1;whiteSpace=wrap;connectable=0;strokeColor=inherit;overflow=hidden;fillColor=none;top=0;left=0;bottom=0;right=0;pointerEvents=1;" vertex="1" parent="OFFA5qb3TSApS7L_1jAY-320">
          <mxGeometry x="1289" width="111" height="40" as="geometry">
            <mxRectangle width="111" height="40" as="alternateBounds" />
          </mxGeometry>
        </mxCell>
        <mxCell id="OFFA5qb3TSApS7L_1jAY-73" value="" style="shape=table;startSize=0;container=1;collapsible=0;childLayout=tableLayout;flipH=0;align=center;flipV=0;movable=1;resizable=1;rotatable=1;deletable=1;editable=1;locked=0;connectable=1;gradientColor=none;swimlaneFillColor=default;shadow=0;resizeWidth=0;fillColor=none;" vertex="1" parent="1">
          <mxGeometry x="30" y="80" width="1531" height="70" as="geometry" />
        </mxCell>
        <mxCell id="OFFA5qb3TSApS7L_1jAY-74" value="" style="shape=tableRow;horizontal=0;startSize=0;swimlaneHead=0;swimlaneBody=0;strokeColor=inherit;top=0;left=0;bottom=0;right=0;collapsible=0;dropTarget=0;fillColor=none;points=[[0,0.5],[1,0.5]];portConstraint=eastwest;align=center;" vertex="1" parent="OFFA5qb3TSApS7L_1jAY-73">
          <mxGeometry width="1531" height="30" as="geometry" />
        </mxCell>
        <mxCell id="OFFA5qb3TSApS7L_1jAY-75" value="&lt;span style=&quot;color: rgb(0, 0, 0); font-family: Helvetica; font-size: 12px; font-style: normal; font-variant-ligatures: normal; font-variant-caps: normal; font-weight: 700; letter-spacing: normal; orphans: 2; text-indent: 0px; text-transform: none; widows: 2; word-spacing: 0px; -webkit-text-stroke-width: 0px; white-space: normal; background-color: rgb(251, 251, 251); text-decoration: underline; float: none; display: inline !important;&quot;&gt;id&lt;/span&gt;" style="shape=partialRectangle;html=1;connectable=0;strokeColor=inherit;overflow=hidden;fillColor=none;top=0;left=0;bottom=0;right=0;pointerEvents=1;align=center;" vertex="1" parent="OFFA5qb3TSApS7L_1jAY-74">
          <mxGeometry width="98" height="30" as="geometry">
            <mxRectangle width="98" height="30" as="alternateBounds" />
          </mxGeometry>
        </mxCell>
        <mxCell id="OFFA5qb3TSApS7L_1jAY-76" value="&lt;span style=&quot;&quot;&gt;&lt;i&gt;client_id&lt;/i&gt;&lt;/span&gt;" style="shape=partialRectangle;html=1;connectable=0;strokeColor=inherit;overflow=hidden;fillColor=none;top=0;left=0;bottom=0;right=0;pointerEvents=1;align=center;" vertex="1" parent="OFFA5qb3TSApS7L_1jAY-74">
          <mxGeometry x="98" width="97" height="30" as="geometry">
            <mxRectangle width="97" height="30" as="alternateBounds" />
          </mxGeometry>
        </mxCell>
        <mxCell id="OFFA5qb3TSApS7L_1jAY-77" value="&lt;span style=&quot;&quot;&gt;card_brand&lt;/span&gt;" style="shape=partialRectangle;html=1;connectable=0;strokeColor=inherit;overflow=hidden;fillColor=none;top=0;left=0;bottom=0;right=0;pointerEvents=1;align=center;" vertex="1" parent="OFFA5qb3TSApS7L_1jAY-74">
          <mxGeometry x="195" width="97" height="30" as="geometry">
            <mxRectangle width="97" height="30" as="alternateBounds" />
          </mxGeometry>
        </mxCell>
        <mxCell id="OFFA5qb3TSApS7L_1jAY-78" value="&lt;span style=&quot;&quot;&gt;card_type&lt;/span&gt;" style="shape=partialRectangle;html=1;connectable=0;strokeColor=inherit;overflow=hidden;fillColor=none;top=0;left=0;bottom=0;right=0;pointerEvents=1;align=center;" vertex="1" parent="OFFA5qb3TSApS7L_1jAY-74">
          <mxGeometry x="292" width="95" height="30" as="geometry">
            <mxRectangle width="95" height="30" as="alternateBounds" />
          </mxGeometry>
        </mxCell>
        <mxCell id="OFFA5qb3TSApS7L_1jAY-79" value="&lt;span style=&quot;&quot;&gt;card_number&lt;/span&gt;" style="shape=partialRectangle;html=1;connectable=0;strokeColor=inherit;overflow=hidden;fillColor=none;top=0;left=0;bottom=0;right=0;pointerEvents=1;align=center;" vertex="1" parent="OFFA5qb3TSApS7L_1jAY-74">
          <mxGeometry x="387" width="131" height="30" as="geometry">
            <mxRectangle width="131" height="30" as="alternateBounds" />
          </mxGeometry>
        </mxCell>
        <mxCell id="OFFA5qb3TSApS7L_1jAY-360" value="expires" style="shape=partialRectangle;html=1;connectable=0;strokeColor=inherit;overflow=hidden;fillColor=none;top=0;left=0;bottom=0;right=0;pointerEvents=1;align=center;" vertex="1" parent="OFFA5qb3TSApS7L_1jAY-74">
          <mxGeometry x="518" width="131" height="30" as="geometry">
            <mxRectangle width="131" height="30" as="alternateBounds" />
          </mxGeometry>
        </mxCell>
        <mxCell id="OFFA5qb3TSApS7L_1jAY-80" value="&lt;span style=&quot;color: rgb(0, 0, 0); font-family: Helvetica; font-size: 12px; font-style: normal; font-variant-ligatures: normal; font-variant-caps: normal; font-weight: 400; letter-spacing: normal; orphans: 2; text-indent: 0px; text-transform: none; widows: 2; word-spacing: 0px; -webkit-text-stroke-width: 0px; white-space: normal; background-color: rgb(251, 251, 251); text-decoration-thickness: initial; text-decoration-style: initial; text-decoration-color: initial; float: none; display: inline !important;&quot;&gt;cvv&lt;/span&gt;" style="shape=partialRectangle;html=1;connectable=0;strokeColor=inherit;overflow=hidden;fillColor=none;top=0;left=0;bottom=0;right=0;pointerEvents=1;align=center;" vertex="1" parent="OFFA5qb3TSApS7L_1jAY-74">
          <mxGeometry x="649" width="44" height="30" as="geometry">
            <mxRectangle width="44" height="30" as="alternateBounds" />
          </mxGeometry>
        </mxCell>
        <mxCell id="OFFA5qb3TSApS7L_1jAY-81" value="&lt;span style=&quot;&quot;&gt;has_chip&lt;/span&gt;" style="shape=partialRectangle;html=1;connectable=0;strokeColor=inherit;overflow=hidden;fillColor=none;top=0;left=0;bottom=0;right=0;pointerEvents=1;align=center;" vertex="1" parent="OFFA5qb3TSApS7L_1jAY-74">
          <mxGeometry x="693" width="128" height="30" as="geometry">
            <mxRectangle width="128" height="30" as="alternateBounds" />
          </mxGeometry>
        </mxCell>
        <mxCell id="OFFA5qb3TSApS7L_1jAY-82" value="&lt;span style=&quot;&quot;&gt;nums_cards_issued&lt;/span&gt;" style="shape=partialRectangle;html=1;connectable=0;strokeColor=inherit;overflow=hidden;fillColor=none;top=0;left=0;bottom=0;right=0;pointerEvents=1;align=center;" vertex="1" parent="OFFA5qb3TSApS7L_1jAY-74">
          <mxGeometry x="821" width="180" height="30" as="geometry">
            <mxRectangle width="180" height="30" as="alternateBounds" />
          </mxGeometry>
        </mxCell>
        <mxCell id="OFFA5qb3TSApS7L_1jAY-83" value="&lt;span style=&quot;color: rgb(0, 0, 0); font-family: Helvetica; font-size: 12px; font-style: normal; font-variant-ligatures: normal; font-variant-caps: normal; font-weight: 400; letter-spacing: normal; orphans: 2; text-indent: 0px; text-transform: none; widows: 2; word-spacing: 0px; -webkit-text-stroke-width: 0px; white-space: normal; background-color: rgb(251, 251, 251); text-decoration-thickness: initial; text-decoration-style: initial; text-decoration-color: initial; float: none; display: inline !important;&quot;&gt;credit_limit&lt;/span&gt;" style="shape=partialRectangle;html=1;connectable=0;strokeColor=inherit;overflow=hidden;fillColor=none;top=0;left=0;bottom=0;right=0;pointerEvents=1;align=center;" vertex="1" parent="OFFA5qb3TSApS7L_1jAY-74">
          <mxGeometry x="1001" width="140" height="30" as="geometry">
            <mxRectangle width="140" height="30" as="alternateBounds" />
          </mxGeometry>
        </mxCell>
        <mxCell id="OFFA5qb3TSApS7L_1jAY-84" value="acct_open_date" style="shape=partialRectangle;html=1;connectable=0;strokeColor=inherit;overflow=hidden;fillColor=none;top=0;left=0;bottom=0;right=0;pointerEvents=1;align=center;" vertex="1" parent="OFFA5qb3TSApS7L_1jAY-74">
          <mxGeometry x="1141" width="138" height="30" as="geometry">
            <mxRectangle width="138" height="30" as="alternateBounds" />
          </mxGeometry>
        </mxCell>
        <mxCell id="OFFA5qb3TSApS7L_1jAY-85" value="year_pin_last_changed" style="shape=partialRectangle;html=1;connectable=0;strokeColor=inherit;overflow=hidden;fillColor=none;top=0;left=0;bottom=0;right=0;pointerEvents=1;align=center;" vertex="1" parent="OFFA5qb3TSApS7L_1jAY-74">
          <mxGeometry x="1279" width="132" height="30" as="geometry">
            <mxRectangle width="132" height="30" as="alternateBounds" />
          </mxGeometry>
        </mxCell>
        <mxCell id="OFFA5qb3TSApS7L_1jAY-86" value="card_on_dark_web" style="shape=partialRectangle;html=1;connectable=0;strokeColor=inherit;overflow=hidden;fillColor=none;top=0;left=0;bottom=0;right=0;pointerEvents=1;align=center;" vertex="1" parent="OFFA5qb3TSApS7L_1jAY-74">
          <mxGeometry x="1411" width="120" height="30" as="geometry">
            <mxRectangle width="120" height="30" as="alternateBounds" />
          </mxGeometry>
        </mxCell>
        <mxCell id="OFFA5qb3TSApS7L_1jAY-89" value="" style="shape=tableRow;horizontal=0;startSize=0;swimlaneHead=0;swimlaneBody=0;strokeColor=inherit;top=0;left=0;bottom=0;right=0;collapsible=0;dropTarget=0;fillColor=none;points=[[0,0.5],[1,0.5]];portConstraint=eastwest;align=center;" vertex="1" parent="OFFA5qb3TSApS7L_1jAY-73">
          <mxGeometry y="30" width="1531" height="40" as="geometry" />
        </mxCell>
        <mxCell id="OFFA5qb3TSApS7L_1jAY-90" value="4524" style="shape=partialRectangle;html=1;connectable=0;strokeColor=inherit;overflow=hidden;fillColor=none;top=0;left=0;bottom=0;right=0;pointerEvents=1;align=center;" vertex="1" parent="OFFA5qb3TSApS7L_1jAY-89">
          <mxGeometry width="98" height="40" as="geometry">
            <mxRectangle width="98" height="40" as="alternateBounds" />
          </mxGeometry>
        </mxCell>
        <mxCell id="OFFA5qb3TSApS7L_1jAY-91" value="825" style="shape=partialRectangle;html=1;connectable=0;strokeColor=inherit;overflow=hidden;fillColor=none;top=0;left=0;bottom=0;right=0;pointerEvents=1;align=center;" vertex="1" parent="OFFA5qb3TSApS7L_1jAY-89">
          <mxGeometry x="98" width="97" height="40" as="geometry">
            <mxRectangle width="97" height="40" as="alternateBounds" />
          </mxGeometry>
        </mxCell>
        <mxCell id="OFFA5qb3TSApS7L_1jAY-92" value="Visa" style="shape=partialRectangle;html=1;connectable=0;strokeColor=inherit;overflow=hidden;fillColor=none;top=0;left=0;bottom=0;right=0;pointerEvents=1;align=center;" vertex="1" parent="OFFA5qb3TSApS7L_1jAY-89">
          <mxGeometry x="195" width="97" height="40" as="geometry">
            <mxRectangle width="97" height="40" as="alternateBounds" />
          </mxGeometry>
        </mxCell>
        <mxCell id="OFFA5qb3TSApS7L_1jAY-93" value="Debit" style="shape=partialRectangle;html=1;connectable=0;strokeColor=inherit;overflow=hidden;fillColor=none;top=0;left=0;bottom=0;right=0;pointerEvents=1;align=center;" vertex="1" parent="OFFA5qb3TSApS7L_1jAY-89">
          <mxGeometry x="292" width="95" height="40" as="geometry">
            <mxRectangle width="95" height="40" as="alternateBounds" />
          </mxGeometry>
        </mxCell>
        <mxCell id="OFFA5qb3TSApS7L_1jAY-94" value="4344676511950444" style="shape=partialRectangle;html=1;connectable=0;strokeColor=inherit;overflow=hidden;fillColor=none;top=0;left=0;bottom=0;right=0;pointerEvents=1;align=center;" vertex="1" parent="OFFA5qb3TSApS7L_1jAY-89">
          <mxGeometry x="387" width="131" height="40" as="geometry">
            <mxRectangle width="131" height="40" as="alternateBounds" />
          </mxGeometry>
        </mxCell>
        <mxCell id="OFFA5qb3TSApS7L_1jAY-361" value="12/2022" style="shape=partialRectangle;html=1;connectable=0;strokeColor=inherit;overflow=hidden;fillColor=none;top=0;left=0;bottom=0;right=0;pointerEvents=1;align=center;" vertex="1" parent="OFFA5qb3TSApS7L_1jAY-89">
          <mxGeometry x="518" width="131" height="40" as="geometry">
            <mxRectangle width="131" height="40" as="alternateBounds" />
          </mxGeometry>
        </mxCell>
        <mxCell id="OFFA5qb3TSApS7L_1jAY-95" value="623" style="shape=partialRectangle;html=1;connectable=0;strokeColor=inherit;overflow=hidden;fillColor=none;top=0;left=0;bottom=0;right=0;pointerEvents=1;align=center;" vertex="1" parent="OFFA5qb3TSApS7L_1jAY-89">
          <mxGeometry x="649" width="44" height="40" as="geometry">
            <mxRectangle width="44" height="40" as="alternateBounds" />
          </mxGeometry>
        </mxCell>
        <mxCell id="OFFA5qb3TSApS7L_1jAY-96" value="YES" style="shape=partialRectangle;html=1;connectable=0;strokeColor=inherit;overflow=hidden;fillColor=none;top=0;left=0;bottom=0;right=0;pointerEvents=1;align=center;" vertex="1" parent="OFFA5qb3TSApS7L_1jAY-89">
          <mxGeometry x="693" width="128" height="40" as="geometry">
            <mxRectangle width="128" height="40" as="alternateBounds" />
          </mxGeometry>
        </mxCell>
        <mxCell id="OFFA5qb3TSApS7L_1jAY-97" value="2" style="shape=partialRectangle;html=1;connectable=0;strokeColor=inherit;overflow=hidden;fillColor=none;top=0;left=0;bottom=0;right=0;pointerEvents=1;align=center;" vertex="1" parent="OFFA5qb3TSApS7L_1jAY-89">
          <mxGeometry x="821" width="180" height="40" as="geometry">
            <mxRectangle width="180" height="40" as="alternateBounds" />
          </mxGeometry>
        </mxCell>
        <mxCell id="OFFA5qb3TSApS7L_1jAY-98" value="24295" style="shape=partialRectangle;html=1;connectable=0;strokeColor=inherit;overflow=hidden;fillColor=none;top=0;left=0;bottom=0;right=0;pointerEvents=1;align=center;" vertex="1" parent="OFFA5qb3TSApS7L_1jAY-89">
          <mxGeometry x="1001" width="140" height="40" as="geometry">
            <mxRectangle width="140" height="40" as="alternateBounds" />
          </mxGeometry>
        </mxCell>
        <mxCell id="OFFA5qb3TSApS7L_1jAY-99" value="09/2002" style="shape=partialRectangle;html=1;connectable=0;strokeColor=inherit;overflow=hidden;fillColor=none;top=0;left=0;bottom=0;right=0;pointerEvents=1;align=center;" vertex="1" parent="OFFA5qb3TSApS7L_1jAY-89">
          <mxGeometry x="1141" width="138" height="40" as="geometry">
            <mxRectangle width="138" height="40" as="alternateBounds" />
          </mxGeometry>
        </mxCell>
        <mxCell id="OFFA5qb3TSApS7L_1jAY-100" value="2008" style="shape=partialRectangle;html=1;connectable=0;strokeColor=inherit;overflow=hidden;fillColor=none;top=0;left=0;bottom=0;right=0;pointerEvents=1;align=center;" vertex="1" parent="OFFA5qb3TSApS7L_1jAY-89">
          <mxGeometry x="1279" width="132" height="40" as="geometry">
            <mxRectangle width="132" height="40" as="alternateBounds" />
          </mxGeometry>
        </mxCell>
        <mxCell id="OFFA5qb3TSApS7L_1jAY-101" value="No" style="shape=partialRectangle;html=1;connectable=0;strokeColor=inherit;overflow=hidden;fillColor=none;top=0;left=0;bottom=0;right=0;pointerEvents=1;align=center;" vertex="1" parent="OFFA5qb3TSApS7L_1jAY-89">
          <mxGeometry x="1411" width="120" height="40" as="geometry">
            <mxRectangle width="120" height="40" as="alternateBounds" />
          </mxGeometry>
        </mxCell>
      </root>
    </mxGraphModel>
  </diagram>
</mxfile>
